<?xml version="1.0" encoding="utf-8"?>
<!-- Generator: Adobe Illustrator 16.0.0, SVG Export Plug-In . SVG Version: 6.00 Build 0)  -->
<!DOCTYPE svg PUBLIC "-//W3C//DTD SVG 1.1//EN" "http://www.w3.org/Graphics/SVG/1.1/DTD/svg11.dtd">
<svg version="1.1" id="Layer_1" xmlns="http://www.w3.org/2000/svg" xmlns:xlink="http://www.w3.org/1999/xlink" x="0px" y="0px"
	 width="20px" height="16.245px" viewBox="0 0 20 16.245" enable-background="new 0 0 20 16.245" xml:space="preserve">
<g>
	<path fill="#FFFFFF" d="M19.976,1.955c-0.562,0.836-1.246,1.541-2.048,2.116c0.017,0.121,0.021,0.296,0.021,0.524
		c0,1.107-0.157,2.207-0.476,3.298c-0.318,1.093-0.803,2.148-1.456,3.164c-0.652,1.017-1.434,1.903-2.342,2.66
		c-0.912,0.759-2.003,1.373-3.278,1.844c-1.272,0.469-2.638,0.697-4.096,0.683c-2.288,0-4.39-0.616-6.301-1.844
		c0.304,0.03,0.636,0.044,1.001,0.044c1.911,0,3.612-0.582,5.099-1.75c-0.896-0.014-1.691-0.288-2.391-0.82
		c-0.698-0.53-1.184-1.204-1.458-2.024c0.274,0.044,0.532,0.067,0.775,0.067c0.365,0,0.721-0.042,1.069-0.135
		c-0.94-0.195-1.729-0.667-2.368-1.41C1.094,7.63,0.781,6.756,0.797,5.755V5.71c0.576,0.318,1.19,0.494,1.84,0.524
		c-0.56-0.381-1.007-0.866-1.341-1.456c-0.334-0.592-0.5-1.245-0.5-1.958c0-0.745,0.189-1.434,0.57-2.072
		c1.029,1.26,2.273,2.27,3.729,3.028C6.553,4.535,8.123,4.959,9.805,5.05C9.744,4.732,9.714,4.42,9.714,4.118
		c0-1.14,0.401-2.108,1.206-2.912C11.726,0.4,12.694,0,13.834,0c1.182,0,2.183,0.433,3.002,1.296
		c0.924-0.181,1.789-0.515,2.592-1.002c-0.316,0.973-0.917,1.724-1.796,2.255C18.419,2.457,19.208,2.243,20,1.911L19.976,1.955z"/>
</g>
</svg>
